# xmcd
# Copyright (C) 1995-1998 Ti Kan
#
# Track frame offsets:
#       150
#       18888
#       32085
#       52280
#       68567
#       85270
#       96067
#       111697
#       134945
#       151241
#       170653
#       183135
#
# Disc length: 2636 seconds
#
# Revision: 0
# Processed by: cddbd v1.5.2PL0 Copyright (c) Steve Scherf et al.
# Submitted via: CD-Import v1.0
#
DISCID=a50a4a0c
DTITLE=Jivaros Quartet - Fever Led Us There
DYEAR=1995
DGENRE=
TTITLE0=Bad Weather
TTITLE1=Anywhere But Here
TTITLE2=Slow-Motion Day
TTITLE3=Polaroid People
TTITLE4=Precious Time
TTITLE5=The Evening Men
TTITLE6=Someone Was Talking To Me
TTITLE7=Lose Me Now
TTITLE8=The Password
TTITLE9=Summer's Fears
TTITLE10=Growing Zero
TTITLE11=No Reason To Take Everything To Heart
EXTD=
EXTT0=
EXTT1=
EXTT2=
EXTT3=
EXTT4=
EXTT5=
EXTT6=
EXTT7=
EXTT8=
EXTT9=
EXTT10=
EXTT11=
PLAYORDER=
